<svg width="194" height="129" viewBox="0 0 194 129" fill="none" xmlns="http://www.w3.org/2000/svg">
<g clip-path="url(#clip0_29_75)">
<path d="M26.4808 125.514L30.0257 125.514L31.7116 111.875L26.4796 111.875L26.4808 125.514Z" fill="#FFB8B8"/>
<path d="M36.8625 128.797L25.7215 128.798L25.7211 124.504L32.5577 124.504C33.6993 124.503 34.7942 124.956 35.6015 125.761C36.4088 126.566 36.8624 127.658 36.8625 128.797Z" fill="#2F2E41"/>
<path d="M55.0082 125.514L58.553 125.514L60.2389 111.875L55.007 111.875L55.0082 125.514Z" fill="#FFB8B8"/>
<path d="M65.3899 128.797L54.2488 128.798L54.2484 124.504L61.085 124.504C62.2266 124.503 63.3216 124.956 64.1289 125.761C64.9362 126.566 65.3898 127.658 65.3899 128.797Z" fill="#2F2E41"/>
<path d="M25.7141 120.491C25.3906 120.491 25.077 120.379 24.8272 120.174C24.5775 119.969 24.407 119.684 24.3452 119.367L22.0688 90.8347C19.6182 66.6725 23.8128 58.1602 23.8555 58.0771L23.9015 57.9873L24.0024 57.9931L43.6777 59.1227L47.8543 72.7508L58.8944 87.5475C60.6411 89.8975 61.569 92.753 61.5366 95.6782L61.2571 117.252C61.2508 117.601 61.1141 117.934 60.8739 118.188C60.6338 118.441 60.3074 118.596 59.9587 118.622L54.1952 119.022C53.8348 119.049 53.4784 118.934 53.2014 118.702C52.9243 118.471 52.7485 118.141 52.711 117.783L51.283 94.3604C51.2789 94.3361 51.2673 94.3136 51.2499 94.296L34.8761 79.0729C34.8221 79.0156 34.7544 78.9728 34.6793 78.9488C34.6042 78.9247 34.5242 78.92 34.4468 78.9353C34.3694 78.9505 34.2972 78.9851 34.2369 79.0359C34.1766 79.0866 34.1302 79.1518 34.1021 79.2253L32.4508 118.877C32.4691 119.066 32.4481 119.256 32.3893 119.436C32.3304 119.616 32.2349 119.782 32.1088 119.923C31.9806 120.068 31.8236 120.184 31.6479 120.265C31.4722 120.346 31.2815 120.39 31.088 120.394L25.7399 120.491C25.7313 120.491 25.7227 120.491 25.7141 120.491Z" fill="#2F2E41"/>
<path d="M39.5464 28.5568C44.3611 25.9314 46.1305 19.9097 43.4986 15.1069C40.8666 10.3042 34.8299 8.53916 30.0152 11.1646C25.2005 13.79 23.4311 19.8117 26.063 24.6144C28.695 29.4171 34.7317 31.1822 39.5464 28.5568Z" fill="#2F2E41"/>
<path d="M77.4576 39.3144C77.0874 39.106 76.6759 38.9811 76.2521 38.9485C75.8283 38.9159 75.4024 38.9764 75.0046 39.1257C74.6067 39.275 74.2466 39.5096 73.9494 39.8128C73.6523 40.116 73.4254 40.4805 73.2847 40.8806L66.6507 41.2515L65.8934 45.3279L75.2545 44.6728C75.9441 44.864 76.6799 44.7962 77.3227 44.4823C77.9655 44.1684 78.4705 43.6302 78.742 42.9697C79.0136 42.3092 79.0328 41.5723 78.7961 40.8986C78.5593 40.2249 78.0831 39.6613 77.4576 39.3144Z" fill="#FFB8B8"/>
<path d="M22.6393 72.9495C22.8231 72.5672 22.9206 72.1493 22.925 71.7253C22.9294 71.3013 22.8405 70.8815 22.6647 70.4955C22.4889 70.1095 22.2303 69.7666 21.9072 69.491C21.5842 69.2155 21.2045 69.0139 20.7949 68.9005L19.9822 62.3224L15.8543 61.8401L17.1327 71.1136C16.9874 71.8126 17.1042 72.5405 17.461 73.1593C17.8178 73.7782 18.3897 74.245 19.0685 74.4713C19.7472 74.6976 20.4856 74.6677 21.1438 74.3872C21.8019 74.1067 22.334 73.5952 22.6393 72.9495H22.6393Z" fill="#FFB8B8"/>
<path d="M34.3458 30.4912C38.552 30.4912 41.9617 27.09 41.9617 22.8943C41.9617 18.6986 38.552 15.2973 34.3458 15.2973C30.1397 15.2973 26.73 18.6986 26.73 22.8943C26.73 27.09 30.1397 30.4912 34.3458 30.4912Z" fill="#FFB8B8"/>
<path d="M35.8474 61.8073C31.7977 61.8073 28.4042 61.4803 25.0386 60.28C23.6531 59.786 23.505 59.1735 23.3102 58.4073C23.0044 57.2048 22.8367 42.9832 24.4156 38.2634C24.8439 36.9947 25.624 35.8731 26.6652 35.0285C27.7064 34.1839 28.9663 33.651 30.2987 33.4913C31.8021 33.3146 36.2989 32.6806 38.8456 32.3184C40.097 32.1307 41.3721 32.4423 42.3948 33.1856C43.0698 33.6913 43.4203 34.2344 43.4366 34.8L44.1286 58.8454C44.1512 59.5403 43.9021 60.2167 43.4341 60.7319C42.966 61.247 42.3155 61.5605 41.6201 61.6062C40.0639 61.7112 38.0413 61.8073 35.8474 61.8073Z" fill="#5A9AFA"/>
<path d="M15.7033 67.6962C15.5155 67.6962 15.3297 67.6583 15.157 67.585C14.9842 67.5116 14.8281 67.4042 14.6979 67.2692C14.5678 67.1342 14.4663 66.9744 14.3995 66.7994C14.3327 66.6244 14.3021 66.4377 14.3093 66.2505L14.5512 55.2222C14.6042 53.8593 15.0121 52.5337 15.7349 51.3758L25.1196 36.3591C25.4137 35.8912 25.8221 35.5057 26.3067 35.2386C26.7912 34.9715 27.3358 34.8317 27.8894 34.8323C28.4437 34.8324 28.9886 34.9748 29.4717 35.2458C29.9548 35.5168 30.3598 35.9073 30.6479 36.3796C30.947 36.8677 31.1117 37.426 31.1252 37.9979C31.1386 38.5698 31.0005 39.1352 30.7246 39.6367L21.6213 56.1402L22.2479 66.2694C22.2513 66.454 22.2177 66.6375 22.1493 66.809C22.0809 66.9806 21.9789 67.1369 21.8493 67.2687C21.7198 67.4006 21.5652 67.5054 21.3946 67.5771C21.224 67.6488 21.0408 67.6859 20.8557 67.6862L15.7064 67.6962L15.7033 67.6962Z" fill="#5A9AFA"/>
<path d="M71.3213 46.9705C71.1969 47.1107 71.0451 47.2242 70.8753 47.3039C70.7055 47.3837 70.5211 47.4281 70.3335 47.4344L59.2852 48.0189C57.9197 48.0677 56.5649 47.761 55.3542 47.129L39.6404 38.917C39.1498 38.6606 38.733 38.2834 38.4296 37.8212C38.1262 37.359 37.9463 36.8271 37.9069 36.276C37.8675 35.7249 37.97 35.1729 38.2046 34.6725C38.4392 34.172 38.7982 33.7396 39.2474 33.4164L39.338 33.5418L39.2474 33.4164C39.7129 33.0823 40.2586 32.8767 40.8294 32.8205C41.4001 32.7644 41.9756 32.8596 42.4976 33.0965L59.6769 40.9173L69.7635 39.5356C69.9473 39.5195 70.1325 39.54 70.3082 39.5958C70.484 39.6516 70.647 39.7416 70.7877 39.8606C70.9284 39.9796 71.044 40.1252 71.1279 40.2891C71.2118 40.453 71.2623 40.6318 71.2765 40.8153L71.6716 45.9367C71.6736 45.9624 71.6748 45.9879 71.6754 46.0133C71.6844 46.3658 71.5577 46.7084 71.3213 46.9705Z" fill="#5A9AFA"/>
<path d="M28.7044 21.8183L26.7286 16.496L35.613 13.931L41.9631 15.8774V21.8183H28.7044Z" fill="#2F2E41"/>
<path d="M38.0439 9.81914C37.8551 7.68375 37.0334 5.65275 35.6834 3.98487C34.3333 2.31698 32.5162 1.08771 30.4633 0.453672C28.4104 -0.180372 26.2148 -0.190489 24.1562 0.424603C22.0975 1.0397 20.269 2.25215 18.9036 3.90752C17.0358 6.17195 16.1728 9.0851 15.5411 11.949C14.9095 14.8129 14.4521 17.7522 13.2257 20.4172C11.9992 23.0822 9.83686 25.5034 6.98203 26.203C4.12721 26.9026 0.659931 25.3273 0 22.4697C0.102378 24.401 0.591291 26.2922 1.43792 28.032C2.28456 29.7718 3.47178 31.325 4.92961 32.5999C7.40309 34.7397 11.4416 33.9831 13.8766 31.7998C16.3116 29.6165 17.5167 26.4125 18.5594 23.3165C19.602 20.2206 20.63 16.9926 22.8416 14.5844C25.0532 12.1762 31.3213 9.61659 34.1619 11.2406C36.3895 12.5143 37.1889 11.7046 38.0439 9.81914Z" fill="#2F2E41"/>
<path d="M188.884 73.1698H80.9758C79.6194 73.1683 78.3189 72.6301 77.3597 71.6733C76.4006 70.7165 75.861 69.4193 75.8595 68.0662V13.3186C75.861 11.9655 76.4006 10.6683 77.3597 9.71152C78.3189 8.75474 79.6194 8.21656 80.9758 8.21503H188.884C190.24 8.21655 191.541 8.75473 192.5 9.71151C193.459 10.6683 193.998 11.9655 194 13.3186V68.0662C193.998 69.4193 193.459 70.7165 192.5 71.6733C191.541 72.6301 190.24 73.1683 188.884 73.1698Z" fill="#E6E6E6"/>
<path d="M187.643 69.4581H82.2162C81.5174 69.4573 80.8474 69.1801 80.3533 68.6872C79.8592 68.1943 79.5813 67.526 79.5805 66.829V14.5558C79.5813 13.8588 79.8592 13.1905 80.3533 12.6976C80.8474 12.2048 81.5174 11.9275 82.2162 11.9267H187.643C188.342 11.9275 189.012 12.2048 189.506 12.6976C190 13.1905 190.278 13.8588 190.279 14.5558V66.829C190.278 67.526 190 68.1943 189.506 68.6872C189.012 69.1801 188.342 69.4573 187.643 69.4581Z" fill="white"/>
<path d="M176.17 61.8801H93.6891C93.0312 61.8801 92.4003 61.6193 91.935 61.1553C91.4698 60.6912 91.2085 60.0619 91.2085 59.4056C91.2085 58.7493 91.4698 58.1199 91.935 57.6559C92.4003 57.1918 93.0312 56.9311 93.6891 56.9311H176.17C176.828 56.9311 177.459 57.1918 177.924 57.6559C178.39 58.1199 178.651 58.7493 178.651 59.4056C178.651 60.0619 178.39 60.6912 177.924 61.1553C177.459 61.6193 176.828 61.8801 176.17 61.8801Z" fill="#E6E6E6"/>
<path d="M176.17 51.3636H93.6891C93.0312 51.3636 92.4003 51.1029 91.935 50.6388C91.4698 50.1747 91.2085 49.5454 91.2085 48.8891C91.2085 48.2328 91.4698 47.6034 91.935 47.1394C92.4003 46.6753 93.0312 46.4146 93.6891 46.4146H176.17C176.828 46.4146 177.459 46.6753 177.924 47.1394C178.39 47.6034 178.651 48.2328 178.651 48.8891C178.651 49.5454 178.39 50.1747 177.924 50.6388C177.459 51.1029 176.828 51.3636 176.17 51.3636Z" fill="#E6E6E6"/>
<path d="M111.674 39.1853H93.6891C92.9903 39.1845 92.3204 38.9073 91.8263 38.4144C91.3321 37.9215 91.0542 37.2532 91.0534 36.5562V23.4864C91.0542 22.7893 91.3321 22.121 91.8263 21.6282C92.3204 21.1353 92.9903 20.858 93.6891 20.8572H111.674C112.373 20.858 113.042 21.1353 113.537 21.6282C114.031 22.121 114.309 22.7893 114.309 23.4864V36.5562C114.309 37.2532 114.031 37.9215 113.537 38.4144C113.042 38.9073 112.373 39.1845 111.674 39.1853Z" fill="#5A9AFA"/>
<path d="M176.262 37.754H134.401C133.743 37.754 133.112 37.4933 132.647 37.0292C132.182 36.5652 131.921 35.9358 131.921 35.2795C131.921 34.6233 132.182 33.9939 132.647 33.5298C133.112 33.0658 133.743 32.8051 134.401 32.8051H176.262C176.92 32.8051 177.551 33.0658 178.016 33.5298C178.481 33.9939 178.743 34.6233 178.743 35.2795C178.743 35.9358 178.481 36.5652 178.016 37.0292C177.551 37.4933 176.92 37.754 176.262 37.754Z" fill="#CCCCCC"/>
<path d="M158.897 27.2375H134.401C133.743 27.2375 133.112 26.9768 132.647 26.5127C132.182 26.0487 131.921 25.4193 131.921 24.763C131.921 24.1068 132.182 23.4774 132.647 23.0133C133.112 22.5493 133.743 22.2886 134.401 22.2886H158.897C159.555 22.2886 160.186 22.5493 160.652 23.0133C161.117 23.4774 161.378 24.1068 161.378 24.763C161.378 25.4193 161.117 26.0487 160.652 26.5127C160.186 26.9768 159.555 27.2375 158.897 27.2375Z" fill="#CCCCCC"/>
<path d="M77.6187 129H16.2228C16.1406 129 16.0617 128.967 16.0036 128.909C15.9454 128.851 15.9127 128.773 15.9127 128.691C15.9127 128.609 15.9454 128.53 16.0036 128.472C16.0617 128.414 16.1406 128.381 16.2228 128.381H77.6187C77.7009 128.381 77.7798 128.414 77.8379 128.472C77.8961 128.53 77.9287 128.609 77.9287 128.691C77.9287 128.773 77.8961 128.851 77.8379 128.909C77.7798 128.967 77.7009 129 77.6187 129Z" fill="#CCCCCC"/>
</g>
<defs>
<clipPath id="clip0_29_75">
<rect width="194" height="129" fill="white"/>
</clipPath>
</defs>
</svg>
