<svg width="24" height="24" viewBox="0 0 24 24" fill="none" xmlns="http://www.w3.org/2000/svg">
<path d="M7.54219 3.13125C7.35938 3.225 7.25156 3.32344 7.14844 3.49219L7.00781 3.71719L6.99375 4.85625L6.975 5.99531L5.325 6.00937L3.67031 6.02344L3.47813 6.15469C3.37031 6.225 3.225 6.37031 3.15469 6.47812L3.02344 6.675L3.00938 12.9375L3 19.2047L3.13125 19.4578C3.225 19.6406 3.32344 19.7484 3.49219 19.8516L3.71719 19.9922H12H20.2828L20.5078 19.8516C20.6766 19.7484 20.775 19.6406 20.8688 19.4578L21 19.2094V13.0453C21 8.30156 20.9859 6.83437 20.9438 6.68437C20.8688 6.43594 20.5641 6.13125 20.3156 6.05625C20.1797 6.01875 19.6641 6 18.5719 6H17.025L17.0063 4.86094L16.9922 3.71719L16.8516 3.49219C16.6453 3.15937 16.2984 2.98125 15.9234 3.01406C15.5953 3.04219 15.3375 3.19687 15.1547 3.47812L15.0234 3.67031L15.0094 4.8375L14.9953 6H11.9953H9V4.94062C9 3.72187 8.97188 3.58125 8.69531 3.30469C8.37188 2.98125 7.95 2.91562 7.54219 3.13125ZM18.9844 13.0078V18H12H5.01563V13.0078V8.01562H12H18.9844V13.0078Z" fill="#D0D4E1"/>
<path d="M7.55157 9.12187C7.12969 9.3328 6.92344 9.77812 7.03594 10.2375C7.11094 10.5516 7.43438 10.8844 7.74375 10.9594C7.90313 11.0016 9.06563 11.0156 12.0141 11.0156C16.6125 11.0156 16.4016 11.0297 16.725 10.6594C17.175 10.1484 17.0438 9.42187 16.4484 9.12187L16.2 8.99999H12H7.8L7.55157 9.12187Z" fill="#D0D4E1"/>
</svg>
