<svg width="24" height="24" viewBox="0 0 24 24" fill="none" xmlns="http://www.w3.org/2000/svg">
<path d="M11.4844 2.37188C11.3438 2.40938 11.1375 2.49375 11.0203 2.56406C10.7766 2.70469 2.77032 9.375 2.52657 9.6375C2.30157 9.88125 2.17969 10.0969 2.09063 10.4109C2.02032 10.6453 2.01563 11.1891 2.025 15.5906L2.03907 20.5125L2.2125 20.8641C2.42813 21.3 2.7375 21.6047 3.17813 21.8109L3.49219 21.9609H12H20.5078L20.8219 21.8109C21.2625 21.6047 21.5719 21.3 21.7875 20.8641L21.9609 20.5125L21.975 15.5906C21.9844 11.1891 21.9797 10.6453 21.9094 10.4109C21.8203 10.0969 21.6984 9.88125 21.4734 9.6375C21.2297 9.375 13.2234 2.70469 12.9797 2.56406C12.5531 2.31094 11.9813 2.24063 11.4844 2.37188ZM16.0125 7.65L20.0156 10.9828L20.0063 15.4875L19.9922 19.9922H18H16.0078L15.9844 18C15.9563 15.8484 15.9609 15.8625 15.6891 15.4406C15.5391 15.1969 15.1547 14.8453 14.9063 14.7188C14.4938 14.5078 14.2219 14.4844 12 14.4844C9.77813 14.4844 9.50625 14.5078 9.09375 14.7188C8.84532 14.8453 8.46094 15.1969 8.31094 15.4406C8.03907 15.8625 8.04375 15.8484 8.01563 18L7.99219 19.9922H6H4.00782L3.99375 15.4875L3.98438 10.9828L7.97813 7.65C10.1766 5.81719 11.9859 4.31719 11.9906 4.3125C12 4.3125 13.8094 5.8125 16.0125 7.65ZM14.0063 18.2438L13.9922 19.9922H12H10.0078L9.99375 18.2438L9.98438 16.5H12H14.0156L14.0063 18.2438Z" fill="#D0D4E1"/>
</svg>
