<svg width="24" height="24" viewBox="0 0 24 24" fill="none" xmlns="http://www.w3.org/2000/svg">
<path d="M11.4843 2.37188C11.3437 2.40938 11.1375 2.49375 11.0203 2.56406C10.7765 2.70469 2.77029 9.375 2.52654 9.6375C2.30154 9.88125 2.17966 10.0969 2.0906 10.4109C2.02029 10.6453 2.0156 11.1891 2.02497 15.5906L2.03904 20.5125L2.21247 20.8641C2.4281 21.3 2.73747 21.6047 3.1781 21.8109L3.49216 21.9609H12H20.5078L20.8218 21.8109C21.2625 21.6047 21.5718 21.3 21.7875 20.8641L21.9609 20.5125L21.975 15.5906C21.9843 11.1891 21.9797 10.6453 21.9093 10.4109C21.8203 10.0969 21.6984 9.88125 21.4734 9.6375C21.2297 9.375 13.2234 2.70469 12.9797 2.56406C12.5531 2.31094 11.9812 2.24063 11.4843 2.37188ZM16.0125 7.65L20.0156 10.9828L20.0062 15.4875L19.9922 19.9922H18H16.0078L15.9843 18C15.9562 15.8484 15.9609 15.8625 15.689 15.4406C15.539 15.1969 15.1547 14.8453 14.9062 14.7188C14.4937 14.5078 14.2218 14.4844 12 14.4844C9.7781 14.4844 9.50622 14.5078 9.09372 14.7188C8.84529 14.8453 8.46091 15.1969 8.31091 15.4406C8.03904 15.8625 8.04372 15.8484 8.0156 18L7.99216 19.9922H5.99997H4.00779L3.99372 15.4875L3.98435 10.9828L7.9781 7.65C10.1765 5.81719 11.9859 4.31719 11.9906 4.3125C12 4.3125 13.8093 5.8125 16.0125 7.65ZM14.0062 18.2438L13.9922 19.9922H12H10.0078L9.99372 18.2438L9.98435 16.5H12H14.0156L14.0062 18.2438Z" fill="#5A9AFA"/>
</svg>
