<svg width="77" height="89" viewBox="0 0 77 89" fill="none" xmlns="http://www.w3.org/2000/svg">
<g style="mix-blend-mode:lighten">
<path d="M19.7957 11.8484L19.8024 11.8445L19.8091 11.8407C24.4155 9.22623 28.6847 6.82674 31.8519 5.07932C33.4339 4.2065 34.7501 3.49129 35.6991 2.99205C36.171 2.74374 36.5681 2.54044 36.8678 2.3959C37.0146 2.32507 37.1619 2.25676 37.2939 2.20214C37.3579 2.17567 37.4462 2.14072 37.5444 2.10908C37.5456 2.1087 37.5473 2.10815 37.5494 2.10743C37.5963 2.09185 37.873 1.99999 38.2146 1.99999C38.5562 1.99999 38.8328 2.0918 38.8798 2.10741L38.8848 2.10908C38.983 2.14072 39.0713 2.17567 39.1353 2.20214C39.2673 2.25676 39.4146 2.32507 39.5615 2.3959C39.8611 2.54044 40.2582 2.74374 40.7302 2.99205C41.6791 3.49129 42.9954 4.2065 44.5774 5.07932C47.7446 6.82674 52.0137 9.22623 56.6202 11.8407L56.6269 11.8445L56.6335 11.8484L73.4298 21.5529L74.4292 22.1303V23.2846V43.8134V64.3421V65.4976L73.4283 66.0747L56.3832 75.9037L56.3778 75.9068L39.2083 85.7357L38.211 86.3066L37.2155 85.7326L20.1759 75.9068L20.1704 75.9037L3.00637 66.0779L2 65.5017V64.3421V43.8134V23.2846V22.1303L2.99944 21.5529L19.7957 11.8484ZM38.0064 11.3033C37.7773 11.4234 37.5051 11.5695 37.1924 11.7401C36.3348 12.2083 35.2076 12.8424 33.9003 13.59C31.2877 15.084 27.9847 17.0146 24.7406 18.9393C21.4957 20.8645 18.3192 22.7783 15.9581 24.2389C15.397 24.5861 14.885 24.9057 14.431 25.1926C14.89 25.4845 15.4135 25.811 15.9951 26.168C18.4248 27.6597 21.7908 29.6364 25.5066 31.7421L38.2146 38.7893L50.9226 31.7421C54.6428 29.6339 58.0425 27.6557 60.5059 26.1622C61.1212 25.7892 61.6731 25.4495 62.154 25.1476C61.6711 24.8422 61.1166 24.498 60.4981 24.1192C58.0314 22.6083 54.6294 20.5979 50.9037 18.4245C47.1803 16.3146 43.7419 14.3941 41.222 13.0182C39.9586 12.3284 38.9375 11.7817 38.2306 11.4179C38.1507 11.3768 38.076 11.3386 38.0064 11.3033ZM23.4094 67.7087L23.4094 67.7087L23.4214 67.7157L33.7694 73.752L33.478 61.029L33.478 61.0287L33.1304 45.9663L21.6567 39.1968C21.6551 39.1958 21.6534 39.1949 21.6517 39.1939C18.2503 37.215 15.0353 35.4221 12.6123 34.1103C11.9257 33.7385 11.3048 33.4066 10.7629 33.1207C10.7319 33.6253 10.704 34.1995 10.6797 34.8381C10.5727 37.6515 10.5414 41.561 10.6031 45.8906L10.9495 60.5558L23.4094 67.7087ZM53.2824 67.8253L65.9593 60.6801L66.0747 45.9207C66.0745 41.5923 65.9816 37.6833 65.8288 34.8706C65.7921 34.1959 65.7524 33.5931 65.7107 33.0683C65.1489 33.3643 64.499 33.7132 63.775 34.1077C61.369 35.4186 58.1836 37.2122 54.7774 39.194C54.7758 39.1949 54.7741 39.1959 54.7725 39.1968L43.2989 45.9663L42.9513 61.0287L42.9513 61.029L42.6585 73.8133L53.2824 67.8253ZM65.4509 30.9637C65.4507 30.9635 65.452 30.9681 65.4549 30.977C65.4525 30.9681 65.4511 30.9639 65.4509 30.9637Z" stroke="#5A9AFA" stroke-width="4"/>
</g>
</svg>
