<svg width="24" height="24" viewBox="0 0 24 24" fill="none" xmlns="http://www.w3.org/2000/svg">
<path d="M4.55156 3.12191C4.12969 3.33284 3.92344 3.77815 4.03594 4.23753C4.11094 4.55159 4.43438 4.8844 4.74375 4.9594C4.90781 5.00159 6.76875 5.01565 12.0141 5.01565C19.9594 5.01565 19.3922 5.04378 19.725 4.6594C20.175 4.14847 20.0437 3.42191 19.4484 3.12191L19.2 3.00003H12H4.8L4.55156 3.12191Z" fill="#D0D4E1"/>
<path d="M4.59375 11.0906C3.78281 11.4422 3.83906 12.6938 4.67812 12.9375C4.8 12.975 7.04531 12.9844 12.1031 12.975L19.35 12.9609L19.5562 12.8203C20.2031 12.3656 20.1094 11.3859 19.3969 11.0859C19.2422 11.025 18.4125 11.0156 11.9906 11.0156C5.63437 11.0203 4.73906 11.0297 4.59375 11.0906Z" fill="#D0D4E1"/>
<path d="M4.725 19.0406C4.62656 19.0641 4.45313 19.1719 4.34063 19.275C3.81094 19.7344 3.92344 20.5641 4.55156 20.8781L4.8 21H12H19.2L19.4484 20.8781C20.0438 20.5781 20.175 19.8516 19.725 19.3406C19.3922 18.9562 19.9641 18.9844 11.9813 18.9891C7.48594 18.9937 4.83281 19.0125 4.725 19.0406Z" fill="#D0D4E1"/>
</svg>
