<svg width="24" height="24" viewBox="0 0 24 24" fill="none" xmlns="http://www.w3.org/2000/svg">
<path d="M4.55155 3.12191C4.12968 3.33284 3.92343 3.77816 4.03593 4.23753C4.11093 4.55159 4.43436 4.8844 4.74374 4.9594C4.9078 5.00159 6.76874 5.01565 12.0141 5.01565C19.9594 5.01565 19.3922 5.04378 19.725 4.6594C20.175 4.14847 20.0437 3.42191 19.4484 3.12191L19.2 3.00003H12H4.79999L4.55155 3.12191Z" fill="#5A9AFA"/>
<path d="M4.59374 11.0906C3.7828 11.4422 3.83905 12.6938 4.67811 12.9375C4.79999 12.975 7.0453 12.9844 12.1031 12.975L19.35 12.9609L19.5562 12.8203C20.2031 12.3656 20.1094 11.3859 19.3969 11.0859C19.2422 11.025 18.4125 11.0156 11.9906 11.0156C5.63436 11.0203 4.73905 11.0297 4.59374 11.0906Z" fill="#5A9AFA"/>
<path d="M4.72499 19.0406C4.62656 19.0641 4.45312 19.1719 4.34062 19.275C3.81093 19.7344 3.92343 20.5641 4.55156 20.8781L4.79999 21H12H19.2L19.4484 20.8781C20.0437 20.5781 20.175 19.8516 19.725 19.3406C19.3922 18.9562 19.9641 18.9844 11.9812 18.9891C7.48593 18.9937 4.83281 19.0125 4.72499 19.0406Z" fill="#5A9AFA"/>
</svg>
