<svg width="24" height="24" viewBox="0 0 24 24" fill="none" xmlns="http://www.w3.org/2000/svg">
<path d="M7.7 4.4C4.6 7.2 4 8.4 4 11.8C4 14 3.7 16.5 3.4 17.4C2.9 18.6 3.4 19 5.2 19C6.5 19 8.1 19.9 8.8 21C10.4 23.6 13.6 23.6 15.2 21C15.9 19.9 17.5 19 18.8 19C20.6 19 21.1 18.6 20.6 17.4C20.3 16.5 20 14 20 11.8C20 8.4 19.4 7.2 16.3 4.4C14.3 2.5 12.3 0.999996 12 0.999996C11.7 0.999996 9.7 2.5 7.7 4.4ZM16 7C17.3 8.3 18 10.3 18 13V17H12H6V13C6 8.5 8.7 5 12 5C13.1 5 14.9 5.9 16 7ZM13.2 20.2C12.3 21.1 11.7 21.1 10.8 20.2C9.9 19.3 10.1 19 12 19C13.9 19 14.1 19.3 13.2 20.2Z" fill="black"/>
<circle cx="18" cy="5" r="5" fill="#DB3328"/>
</svg>
