<svg width="125" height="147" viewBox="0 0 125 147" fill="none" xmlns="http://www.w3.org/2000/svg">
<path d="M31.711 18.7978L31.7176 18.7939L31.7244 18.7901C39.5983 14.2813 46.8921 10.1454 52.3002 7.13507C55.0027 5.63081 57.2434 4.4025 58.8534 3.54796C59.6559 3.12204 60.3176 2.78046 60.8076 2.54199C61.0496 2.42422 61.2737 2.3199 61.4628 2.24094C61.5553 2.20232 61.6675 2.15793 61.7846 2.11986L61.7917 2.11752C61.8553 2.0965 62.147 2 62.5 2C62.853 2 63.1447 2.0965 63.2083 2.11752L63.2154 2.11986C63.3325 2.15793 63.4447 2.20232 63.5372 2.24094C63.7263 2.3199 63.9504 2.42422 64.1924 2.54199C64.6824 2.78046 65.3441 3.12204 66.1466 3.54796C67.7566 4.4025 69.9973 5.63081 72.6998 7.13507C78.1079 10.1454 85.4017 14.2813 93.2757 18.7901L93.2823 18.7939L93.289 18.7978L122.007 35.5381L123 36.1168V37.2659V72.6781V108.09V109.24L122.006 109.819L92.8621 126.774L92.8566 126.777L63.5003 143.732L62.4964 144.312L61.4943 143.729L32.3561 126.777L32.3506 126.774L2.99973 109.822L2 109.245V108.09V72.6781V37.2659V36.1168L2.9928 35.5381L31.711 18.7978ZM62.1333 14.9772C61.6705 15.212 60.9867 15.5753 60.0786 16.0754C58.6005 16.8895 56.664 17.9886 54.4253 19.2802C49.95 21.8622 44.2957 25.1965 38.7445 28.5193C33.1925 31.8426 27.753 35.1488 23.7058 37.6749C21.8657 38.8234 20.3246 39.8037 19.195 40.5482C20.3168 41.3066 21.8709 42.3015 23.7731 43.4797C27.9471 46.065 33.7197 49.4849 40.0852 53.1241C40.0877 53.1256 40.0902 53.127 40.0926 53.1284L62.5 65.6647L84.9074 53.1284C84.9099 53.127 84.9125 53.1255 84.915 53.124C91.2847 49.4824 97.1131 46.0609 101.343 43.4739C103.319 42.2654 104.928 41.2495 106.076 40.4832C104.927 39.7122 103.315 38.6882 101.335 37.465C97.102 34.8492 91.2715 31.3731 84.8965 27.6212C78.5238 23.978 72.6348 20.6595 68.3157 18.2802C66.1526 17.0886 64.3948 16.139 63.1705 15.5033C62.7516 15.2858 62.4058 15.1105 62.1333 14.9772ZM36.486 115.159L36.486 115.159L36.498 115.166L56.3772 126.865L55.8205 102.341L55.8205 102.341L55.2077 75.5474L34.8966 63.4573C34.8949 63.4563 34.8931 63.4552 34.8913 63.4542C29.0615 60.0322 23.5506 56.9316 19.3947 54.6615C17.3152 53.5257 15.5816 52.6014 14.3205 51.9504C14.3183 51.9493 14.3161 51.9481 14.3138 51.947C14.1893 53.2282 14.0837 54.9863 14.0024 57.1399C13.8181 62.0283 13.7647 68.8021 13.8706 76.289C13.8706 76.2921 13.8707 76.2952 13.8707 76.2983L14.4823 102.415L36.486 115.159ZM68.6214 126.927L88.9532 115.366L111.351 102.629L111.555 76.3266C111.555 76.3241 111.555 76.3215 111.555 76.319C111.554 68.8333 111.395 62.0599 111.132 57.1721C111.013 54.9635 110.874 53.1708 110.724 51.8818C110.678 51.9052 110.631 51.9291 110.584 51.9533C109.319 52.6013 107.596 53.5232 105.53 54.6589C101.402 56.9281 95.9431 60.0295 90.1084 63.4544C90.1067 63.4553 90.105 63.4563 90.1034 63.4573L69.7923 75.5474L69.1795 102.341L69.1795 102.341L68.6214 126.927Z" stroke="#FBFBFB" stroke-width="4"/>
</svg>
