<svg width="238" height="155" viewBox="0 0 238 155" fill="none" xmlns="http://www.w3.org/2000/svg">
<path d="M65.9759 113V95.5455H67.0412V105.679H67.1605L76.3651 95.5455H77.7798L70.2031 103.804L77.7116 113H76.3821L69.5213 104.571L67.0412 107.315V113H65.9759ZM84.8239 113.273C83.642 113.273 82.6136 112.98 81.7386 112.395C80.8636 111.81 80.1875 111.009 79.7102 109.991C79.233 108.974 78.9943 107.815 78.9943 106.514C78.9943 105.207 79.233 104.043 79.7102 103.02C80.1932 101.997 80.8551 101.19 81.696 100.599C82.5369 100.009 83.4972 99.7131 84.5767 99.7131C85.3097 99.7131 86.0028 99.8608 86.6562 100.156C87.3153 100.446 87.8949 100.866 88.3949 101.418C88.9006 101.969 89.2955 102.634 89.5795 103.412C89.8693 104.19 90.0142 105.065 90.0142 106.037V106.685H79.6506V105.739H88.9744C88.9744 104.79 88.7813 103.935 88.3949 103.173C88.0085 102.412 87.483 101.807 86.8182 101.358C86.1534 100.909 85.4063 100.685 84.5767 100.685C83.7074 100.685 82.9318 100.929 82.25 101.418C81.5739 101.901 81.0369 102.554 80.6392 103.378C80.2472 104.202 80.0426 105.122 80.0256 106.139V106.565C80.0256 107.656 80.2159 108.636 80.5966 109.506C80.983 110.369 81.5341 111.054 82.25 111.56C82.9659 112.06 83.8239 112.31 84.8239 112.31C85.5398 112.31 86.1506 112.19 86.6562 111.952C87.1676 111.707 87.5852 111.412 87.9091 111.065C88.233 110.719 88.4773 110.384 88.642 110.06L89.5881 110.443C89.3892 110.881 89.0795 111.318 88.6591 111.756C88.2443 112.187 87.7159 112.548 87.0739 112.838C86.4375 113.128 85.6875 113.273 84.8239 113.273ZM98.6989 113.273C97.517 113.273 96.4886 112.98 95.6136 112.395C94.7386 111.81 94.0625 111.009 93.5852 109.991C93.108 108.974 92.8693 107.815 92.8693 106.514C92.8693 105.207 93.108 104.043 93.5852 103.02C94.0682 101.997 94.7301 101.19 95.571 100.599C96.4119 100.009 97.3722 99.7131 98.4517 99.7131C99.1847 99.7131 99.8778 99.8608 100.531 100.156C101.19 100.446 101.77 100.866 102.27 101.418C102.776 101.969 103.17 102.634 103.455 103.412C103.744 104.19 103.889 105.065 103.889 106.037V106.685H93.5256V105.739H102.849C102.849 104.79 102.656 103.935 102.27 103.173C101.884 102.412 101.358 101.807 100.693 101.358C100.028 100.909 99.2813 100.685 98.4517 100.685C97.5824 100.685 96.8068 100.929 96.125 101.418C95.4489 101.901 94.9119 102.554 94.5142 103.378C94.1222 104.202 93.9176 105.122 93.9006 106.139V106.565C93.9006 107.656 94.0909 108.636 94.4716 109.506C94.858 110.369 95.4091 111.054 96.125 111.56C96.8409 112.06 97.6989 112.31 98.6989 112.31C99.4148 112.31 100.026 112.19 100.531 111.952C101.043 111.707 101.46 111.412 101.784 111.065C102.108 110.719 102.352 110.384 102.517 110.06L103.463 110.443C103.264 110.881 102.955 111.318 102.534 111.756C102.119 112.187 101.591 112.548 100.949 112.838C100.313 113.128 99.5625 113.273 98.6989 113.273ZM107.469 117.909V99.9091H108.483V102.832H108.611C108.815 102.27 109.102 101.753 109.472 101.281C109.847 100.81 110.31 100.432 110.861 100.148C111.418 99.858 112.071 99.7131 112.821 99.7131C113.878 99.7131 114.798 100.003 115.582 100.582C116.366 101.162 116.974 101.963 117.406 102.986C117.838 104.003 118.054 105.17 118.054 106.489C118.054 107.807 117.835 108.977 117.398 110C116.966 111.017 116.358 111.818 115.574 112.403C114.795 112.983 113.884 113.273 112.838 113.273C112.094 113.273 111.44 113.131 110.878 112.847C110.321 112.562 109.852 112.185 109.472 111.713C109.097 111.236 108.81 110.713 108.611 110.145H108.509V117.909H107.469ZM108.491 106.48C108.491 107.594 108.662 108.591 109.003 109.472C109.344 110.347 109.832 111.04 110.469 111.551C111.105 112.057 111.864 112.31 112.744 112.31C113.636 112.31 114.401 112.054 115.037 111.543C115.679 111.026 116.168 110.327 116.503 109.446C116.844 108.565 117.014 107.577 117.014 106.48C117.014 105.384 116.847 104.398 116.511 103.523C116.176 102.648 115.69 101.957 115.054 101.452C114.418 100.94 113.648 100.685 112.744 100.685C111.852 100.685 111.088 100.937 110.452 101.443C109.821 101.943 109.335 102.631 108.994 103.506C108.659 104.375 108.491 105.366 108.491 106.48ZM129.234 117.909C128.972 117.909 128.714 117.881 128.458 117.824C128.202 117.767 127.972 117.693 127.768 117.602L128.075 116.69C128.609 116.895 129.092 116.969 129.523 116.912C129.961 116.855 130.347 116.656 130.683 116.315C131.018 115.974 131.302 115.474 131.535 114.815L132.131 113.179L127.333 99.9091H128.45L132.609 111.662H132.694L136.853 99.9091H137.969L132.447 115.224C132.237 115.815 131.972 116.31 131.654 116.707C131.336 117.105 130.972 117.403 130.563 117.602C130.16 117.807 129.717 117.909 129.234 117.909ZM145.616 113.273C144.537 113.273 143.577 112.983 142.736 112.403C141.895 111.818 141.233 111.014 140.75 109.991C140.267 108.969 140.026 107.804 140.026 106.497C140.026 105.185 140.267 104.02 140.75 103.003C141.233 101.98 141.895 101.176 142.736 100.591C143.577 100.006 144.537 99.7131 145.616 99.7131C146.696 99.7131 147.656 100.006 148.497 100.591C149.338 101.176 150 101.98 150.483 103.003C150.966 104.026 151.207 105.19 151.207 106.497C151.207 107.804 150.966 108.969 150.483 109.991C150 111.014 149.338 111.818 148.497 112.403C147.656 112.983 146.696 113.273 145.616 113.273ZM145.616 112.31C146.531 112.31 147.33 112.051 148.011 111.534C148.699 111.017 149.23 110.318 149.605 109.438C149.986 108.557 150.176 107.577 150.176 106.497C150.176 105.418 149.986 104.44 149.605 103.565C149.224 102.685 148.693 101.986 148.011 101.469C147.33 100.946 146.531 100.685 145.616 100.685C144.702 100.685 143.903 100.946 143.222 101.469C142.54 101.986 142.009 102.685 141.628 103.565C141.247 104.44 141.057 105.418 141.057 106.497C141.057 107.577 141.244 108.557 141.619 109.438C142 110.318 142.531 111.017 143.213 111.534C143.901 112.051 144.702 112.31 145.616 112.31ZM163.175 108.355V99.9091H164.215V113H163.175V110.878H163.09C162.783 111.554 162.286 112.105 161.599 112.531C160.917 112.957 160.11 113.17 159.178 113.17C158.32 113.17 157.562 112.983 156.903 112.608C156.244 112.233 155.727 111.702 155.352 111.014C154.977 110.321 154.789 109.497 154.789 108.543V99.9091H155.829V108.5C155.829 109.591 156.158 110.474 156.817 111.151C157.482 111.821 158.34 112.156 159.391 112.156C160.073 112.156 160.701 112.003 161.275 111.696C161.849 111.389 162.309 110.952 162.656 110.384C163.002 109.81 163.175 109.134 163.175 108.355ZM168.523 113V99.9091H169.538V101.955H169.631C169.915 101.284 170.396 100.747 171.072 100.344C171.748 99.9347 172.518 99.7301 173.381 99.7301C173.472 99.7301 173.563 99.7301 173.654 99.7301C173.745 99.7301 173.83 99.733 173.91 99.7386V100.787C173.842 100.781 173.759 100.773 173.663 100.761C173.572 100.744 173.458 100.736 173.322 100.736C172.594 100.736 171.947 100.892 171.379 101.205C170.816 101.517 170.373 101.949 170.049 102.5C169.725 103.045 169.563 103.67 169.563 104.375V113H168.523ZM64.1882 142V124.545H76.3587V127.972H68.407V131.551H75.7365V134.986H68.407V138.574H76.3587V142H64.1882ZM83.1683 134.534V142H79.0007V128.909H82.9638V131.312H83.1087C83.3984 130.511 83.8928 129.884 84.5916 129.429C85.2905 128.969 86.1229 128.739 87.0888 128.739C88.0092 128.739 88.8075 128.946 89.4837 129.361C90.1655 129.77 90.6939 130.344 91.0689 131.082C91.4496 131.815 91.6371 132.673 91.6314 133.656V142H87.4638V134.474C87.4695 133.747 87.2848 133.179 86.9098 132.77C86.5405 132.361 86.0263 132.156 85.3672 132.156C84.9297 132.156 84.5433 132.253 84.2081 132.446C83.8786 132.634 83.6229 132.903 83.4411 133.256C83.2649 133.608 83.174 134.034 83.1683 134.534ZM98.9929 142.188C98.027 142.188 97.1491 141.938 96.3594 141.438C95.5696 140.938 94.9389 140.188 94.4673 139.188C93.9957 138.188 93.7599 136.946 93.7599 135.463C93.7599 133.923 94.0043 132.656 94.4929 131.662C94.9815 130.668 95.6207 129.932 96.4105 129.455C97.206 128.977 98.0611 128.739 98.9759 128.739C99.6634 128.739 100.251 128.858 100.74 129.097C101.229 129.33 101.632 129.631 101.95 130C102.268 130.369 102.51 130.753 102.675 131.151H102.76V124.545H106.928V142H102.803V139.878H102.675C102.499 140.281 102.249 140.659 101.925 141.011C101.601 141.364 101.195 141.648 100.706 141.864C100.223 142.08 99.652 142.188 98.9929 142.188ZM100.442 138.94C100.947 138.94 101.379 138.798 101.737 138.514C102.095 138.224 102.371 137.818 102.564 137.295C102.757 136.773 102.854 136.159 102.854 135.455C102.854 134.739 102.757 134.122 102.564 133.605C102.376 133.088 102.101 132.69 101.737 132.412C101.379 132.134 100.947 131.994 100.442 131.994C99.9247 131.994 99.4872 132.136 99.1293 132.42C98.7713 132.705 98.4986 133.105 98.3111 133.622C98.1293 134.139 98.0384 134.75 98.0384 135.455C98.0384 136.159 98.1321 136.773 98.3196 137.295C98.5071 137.818 98.777 138.224 99.1293 138.514C99.4872 138.798 99.9247 138.94 100.442 138.94ZM115.683 142.247C114.313 142.247 113.131 141.977 112.137 141.438C111.148 140.892 110.387 140.116 109.853 139.111C109.325 138.099 109.06 136.898 109.06 135.506C109.06 134.153 109.327 132.972 109.862 131.96C110.396 130.943 111.148 130.153 112.12 129.591C113.092 129.023 114.237 128.739 115.555 128.739C116.487 128.739 117.339 128.884 118.112 129.173C118.884 129.463 119.552 129.892 120.114 130.46C120.677 131.028 121.114 131.73 121.427 132.565C121.739 133.395 121.896 134.347 121.896 135.42V136.46H110.518V134.04H118.018C118.012 133.597 117.907 133.202 117.702 132.855C117.498 132.509 117.217 132.239 116.859 132.045C116.506 131.847 116.1 131.747 115.64 131.747C115.174 131.747 114.756 131.852 114.387 132.062C114.018 132.267 113.725 132.548 113.509 132.906C113.293 133.259 113.18 133.659 113.168 134.108V136.571C113.168 137.105 113.273 137.574 113.484 137.977C113.694 138.375 113.992 138.685 114.379 138.906C114.765 139.128 115.225 139.239 115.759 139.239C116.129 139.239 116.464 139.187 116.765 139.085C117.066 138.983 117.325 138.832 117.54 138.634C117.756 138.435 117.918 138.19 118.026 137.901L121.853 138.011C121.694 138.869 121.344 139.616 120.805 140.253C120.271 140.884 119.569 141.375 118.7 141.727C117.83 142.074 116.825 142.247 115.683 142.247ZM127.714 142.222C126.879 142.222 126.138 142.082 125.49 141.804C124.848 141.52 124.339 141.094 123.964 140.526C123.595 139.952 123.411 139.233 123.411 138.369C123.411 137.642 123.538 137.028 123.794 136.528C124.05 136.028 124.402 135.622 124.851 135.31C125.3 134.997 125.817 134.761 126.402 134.602C126.987 134.437 127.612 134.327 128.277 134.27C129.021 134.202 129.621 134.131 130.075 134.057C130.53 133.977 130.859 133.866 131.064 133.724C131.274 133.577 131.379 133.369 131.379 133.102V133.06C131.379 132.622 131.229 132.284 130.928 132.045C130.626 131.807 130.22 131.688 129.709 131.688C129.158 131.688 128.714 131.807 128.379 132.045C128.044 132.284 127.831 132.614 127.74 133.034L123.896 132.898C124.01 132.102 124.303 131.392 124.774 130.767C125.251 130.136 125.905 129.642 126.734 129.284C127.57 128.92 128.572 128.739 129.743 128.739C130.578 128.739 131.348 128.838 132.053 129.037C132.757 129.23 133.371 129.514 133.893 129.889C134.416 130.259 134.82 130.713 135.104 131.253C135.393 131.793 135.538 132.409 135.538 133.102V142H131.618V140.176H131.516C131.283 140.619 130.984 140.994 130.621 141.301C130.263 141.608 129.839 141.838 129.351 141.991C128.868 142.145 128.322 142.222 127.714 142.222ZM129.001 139.494C129.45 139.494 129.854 139.403 130.212 139.222C130.575 139.04 130.865 138.79 131.081 138.472C131.297 138.148 131.405 137.773 131.405 137.347V136.102C131.286 136.165 131.141 136.222 130.97 136.273C130.805 136.324 130.624 136.372 130.425 136.418C130.226 136.463 130.021 136.503 129.811 136.537C129.601 136.571 129.399 136.602 129.206 136.631C128.814 136.693 128.479 136.79 128.2 136.92C127.928 137.051 127.717 137.222 127.57 137.432C127.428 137.636 127.357 137.881 127.357 138.165C127.357 138.597 127.51 138.926 127.817 139.153C128.129 139.381 128.524 139.494 129.001 139.494ZM150.317 128.909L145.825 142H141.053L136.57 128.909H140.959L143.371 137.926H143.507L145.928 128.909H150.317ZM157.604 142.247C156.229 142.247 155.047 141.966 154.058 141.403C153.075 140.835 152.317 140.045 151.783 139.034C151.254 138.017 150.99 136.838 150.99 135.497C150.99 134.151 151.254 132.972 151.783 131.96C152.317 130.943 153.075 130.153 154.058 129.591C155.047 129.023 156.229 128.739 157.604 128.739C158.979 128.739 160.158 129.023 161.141 129.591C162.129 130.153 162.888 130.943 163.416 131.96C163.95 132.972 164.217 134.151 164.217 135.497C164.217 136.838 163.95 138.017 163.416 139.034C162.888 140.045 162.129 140.835 161.141 141.403C160.158 141.966 158.979 142.247 157.604 142.247ZM157.629 139.102C158.129 139.102 158.553 138.949 158.899 138.642C159.246 138.335 159.51 137.909 159.692 137.364C159.879 136.818 159.973 136.187 159.973 135.472C159.973 134.744 159.879 134.108 159.692 133.562C159.51 133.017 159.246 132.591 158.899 132.284C158.553 131.977 158.129 131.824 157.629 131.824C157.112 131.824 156.675 131.977 156.317 132.284C155.964 132.591 155.695 133.017 155.507 133.562C155.325 134.108 155.234 134.744 155.234 135.472C155.234 136.187 155.325 136.818 155.507 137.364C155.695 137.909 155.964 138.335 156.317 138.642C156.675 138.949 157.112 139.102 157.629 139.102ZM166.352 142V128.909H170.401V131.295H170.537C170.776 130.432 171.165 129.79 171.705 129.369C172.244 128.943 172.872 128.73 173.588 128.73C173.781 128.73 173.98 128.744 174.185 128.773C174.389 128.795 174.58 128.832 174.756 128.884V132.506C174.557 132.437 174.295 132.384 173.972 132.344C173.653 132.304 173.369 132.284 173.119 132.284C172.625 132.284 172.179 132.395 171.781 132.616C171.389 132.832 171.08 133.136 170.852 133.528C170.631 133.915 170.52 134.369 170.52 134.892V142H166.352Z" fill="#5A9AFA"/>
<g style="mix-blend-mode:lighten">
<path d="M100.796 11.8484L100.802 11.8445L100.809 11.8407C105.416 9.22623 109.685 6.82674 112.852 5.07932C114.434 4.2065 115.75 3.49129 116.699 2.99205C117.171 2.74374 117.568 2.54044 117.868 2.3959C118.015 2.32507 118.162 2.25676 118.294 2.20214C118.358 2.17567 118.446 2.14072 118.544 2.10908C118.546 2.1087 118.547 2.10815 118.549 2.10743C118.596 2.09185 118.873 1.99999 119.215 1.99999C119.556 1.99999 119.833 2.0918 119.88 2.10741L119.885 2.10908C119.983 2.14072 120.071 2.17567 120.135 2.20214C120.267 2.25676 120.415 2.32507 120.561 2.3959C120.861 2.54044 121.258 2.74374 121.73 2.99205C122.679 3.49129 123.995 4.2065 125.577 5.07932C128.745 6.82674 133.014 9.22623 137.62 11.8407L137.627 11.8445L137.634 11.8484L154.43 21.5529L155.429 22.1303V23.2846V43.8134V64.3421V65.4976L154.428 66.0747L137.383 75.9037L137.378 75.9068L120.208 85.7357L119.211 86.3066L118.216 85.7326L101.176 75.9068L101.17 75.9037L84.0064 66.0779L83 65.5017V64.3421V43.8134V23.2846V22.1303L83.9994 21.5529L100.796 11.8484ZM119.006 11.3033C118.777 11.4234 118.505 11.5695 118.192 11.7401C117.335 12.2083 116.208 12.8424 114.9 13.59C112.288 15.084 108.985 17.0146 105.741 18.9393C102.496 20.8645 99.3192 22.7783 96.9581 24.2389C96.397 24.5861 95.885 24.9057 95.431 25.1926C95.89 25.4845 96.4135 25.811 96.9951 26.168C99.4248 27.6597 102.791 29.6364 106.507 31.7421L119.215 38.7893L131.923 31.7421C135.643 29.6339 139.042 27.6557 141.506 26.1622C142.121 25.7892 142.673 25.4495 143.154 25.1476C142.671 24.8422 142.117 24.498 141.498 24.1192C139.031 22.6083 135.629 20.5979 131.904 18.4245C128.18 16.3146 124.742 14.3941 122.222 13.0182C120.959 12.3284 119.938 11.7817 119.231 11.4179C119.151 11.3768 119.076 11.3386 119.006 11.3033ZM104.409 67.7087L104.409 67.7087L104.421 67.7157L114.769 73.752L114.478 61.029L114.478 61.0287L114.13 45.9663L102.657 39.1968C102.655 39.1958 102.653 39.1949 102.652 39.1939C99.2503 37.215 96.0353 35.4221 93.6123 34.1103C92.9257 33.7385 92.3048 33.4066 91.7629 33.1207C91.7319 33.6253 91.704 34.1995 91.6797 34.8381C91.5727 37.6515 91.5414 41.561 91.6031 45.8906L91.9495 60.5558L104.409 67.7087ZM134.282 67.8253L146.959 60.6801L147.075 45.9207C147.075 41.5923 146.982 37.6833 146.829 34.8706C146.792 34.1959 146.752 33.5931 146.711 33.0683C146.149 33.3643 145.499 33.7132 144.775 34.1077C142.369 35.4186 139.184 37.2122 135.777 39.194C135.776 39.1949 135.774 39.1959 135.773 39.1968L124.299 45.9663L123.951 61.0287L123.951 61.029L123.658 73.8133L134.282 67.8253ZM146.451 30.9637C146.451 30.9635 146.452 30.9681 146.455 30.977C146.452 30.9681 146.451 30.9639 146.451 30.9637Z" stroke="#5A9AFA" stroke-width="4"/>
</g>
</svg>
